<svg width="56" height="16" viewBox="0 0 56 16" fill="none" xmlns="http://www.w3.org/2000/svg">
<path d="M0 8H56" stroke="#B9BAC0"/>
<path d="M22.2861 12.5714C22.2861 12.8745 22.4065 13.1652 22.6209 13.3795C22.8352 13.5939 23.1259 13.7143 23.429 13.7143H32.5718C32.875 13.7143 33.1656 13.5939 33.38 13.3795C33.5943 13.1652 33.7147 12.8745 33.7147 12.5714V5.71428L29.7147 8.57142V5.71428L25.7147 8.57142V3.42856C25.7147 3.12546 25.5943 2.83477 25.38 2.62044C25.1656 2.40611 24.875 2.28571 24.5718 2.28571H23.429C23.1259 2.28571 22.8352 2.40611 22.6209 2.62044C22.4065 2.83477 22.2861 3.12546 22.2861 3.42856V12.5714Z" fill="#131315"/>
<path d="M30.8576 11.4286H31.429H30.8576Z" fill="#131315"/>
<path d="M28.0004 11.4286H28.5718H28.0004Z" fill="#131315"/>
<path d="M25.1433 11.4286H25.7147H25.1433Z" fill="#131315"/>
<path d="M30.8576 11.4286H31.429M28.0004 11.4286H28.5718M25.1433 11.4286H25.7147M22.2861 12.5714C22.2861 12.8745 22.4065 13.1652 22.6209 13.3795C22.8352 13.5939 23.1259 13.7143 23.429 13.7143H32.5718C32.875 13.7143 33.1656 13.5939 33.38 13.3795C33.5943 13.1652 33.7147 12.8745 33.7147 12.5714V5.71428L29.7147 8.57142V5.71428L25.7147 8.57142V3.42856C25.7147 3.12546 25.5943 2.83477 25.38 2.62044C25.1656 2.40611 24.875 2.28571 24.5718 2.28571H23.429C23.1259 2.28571 22.8352 2.40611 22.6209 2.62044C22.4065 2.83477 22.2861 3.12546 22.2861 3.42856V12.5714Z" stroke="#B9BAC0" stroke-linecap="round" stroke-linejoin="round"/>
</svg>
