<svg width="32" height="32" viewBox="0 0 32 32" fill="none" xmlns="http://www.w3.org/2000/svg">
<rect width="32" height="32" rx="8" fill="#DF3537"/>
<path d="M16 22.6667V16M16 16C15.7667 16 15.5376 15.939 15.3354 15.8227L10.2 12.6667M16 16C16.2333 16 16.4625 15.939 16.6647 15.8227L21.8 12.6667M13 10.8467L19 14.28M15.3333 22.4866C15.536 22.6036 15.766 22.6653 16 22.6653C16.234 22.6653 16.464 22.6036 16.6667 22.4866L21.3333 19.82C21.5358 19.703 21.704 19.5349 21.821 19.3325C21.938 19.1301 21.9998 18.9004 22 18.6666V13.3333C21.9998 13.0995 21.938 12.8698 21.821 12.6674C21.704 12.465 21.5358 12.2969 21.3333 12.18L16.6667 9.51329C16.464 9.39626 16.234 9.33466 16 9.33466C15.766 9.33466 15.536 9.39626 15.3333 9.51329L10.6667 12.18C10.4642 12.2969 10.296 12.465 10.179 12.6674C10.062 12.8698 10.0002 13.0995 10 13.3333V18.6666C10.0002 18.9004 10.062 19.1301 10.179 19.3325C10.296 19.5349 10.4642 19.703 10.6667 19.82L15.3333 22.4866Z" stroke="#F7F7F8" stroke-linecap="round" stroke-linejoin="round"/>
</svg>
