<?xml version="1.0" encoding="UTF-8" standalone="no"?>
<svg
   width="56"
   height="12"
   viewBox="0 0 56 12"
   fill="none"
   version="1.1"
   id="svg6"
   sodipodi:docname="transport.svg"
   xmlns:inkscape="http://www.inkscape.org/namespaces/inkscape"
   xmlns:sodipodi="http://sodipodi.sourceforge.net/DTD/sodipodi-0.dtd"
   xmlns="http://www.w3.org/2000/svg"
   xmlns:svg="http://www.w3.org/2000/svg">
  <defs
     id="defs10" />
  <sodipodi:namedview
     id="namedview8"
     pagecolor="#ffffff"
     bordercolor="#666666"
     borderopacity="1.0"
     inkscape:showpageshadow="2"
     inkscape:pageopacity="0.0"
     inkscape:pagecheckerboard="0"
     inkscape:deskcolor="#d1d1d1"
     showgrid="false" />
  <path
     d="m 34,6 -9,5.1962 V 0.803847 Z"
     fill="#F7F7F8"
     id="path2"
     style="fill:#3322f2;fill-opacity:1" />
  <path
     d="M 0,6 H 56"
     stroke="#f7f7f8"
     id="path4"
     style="opacity:1;mix-blend-mode:normal;fill:#3322f2;fill-opacity:1;stroke:#3322f2;stroke-opacity:1" />
  <path
     style="fill:#0000ff;fill-opacity:0;stroke-width:0.0412675"
     d="M 25.008106,8.8293582 V 6.4789978 H 12.504053 0 v -0.474509 -0.474509 l 12.493736,-0.010384 12.493736,-0.010384 0.02063,-2.3391721 0.02063,-2.33917206 4.064849,2.34848146 4.064849,2.3484814 11.420781,0.00101 L 56,5.5298452 V 6.0044215 6.4789978 H 44.576702 33.153401 l -3.010009,1.7374427 c -1.655505,0.9555936 -3.488197,2.0132555 -4.072648,2.3503605 l -1.062638,0.612917 z"
     id="path185" />
  <path
     style="fill:#0000ff;fill-opacity:0;stroke-width:0.0412675"
     d="M 25.008106,8.8293582 V 6.4789978 H 12.504053 0 v -0.474509 -0.474509 l 12.493736,-0.010384 12.493736,-0.010384 0.02063,-2.3391721 0.02063,-2.33917206 4.064849,2.34848146 4.064849,2.3484814 11.420781,0.00101 L 56,5.5298452 V 6.0044215 6.4789978 H 44.576702 33.153401 l -3.010009,1.7374427 c -1.655505,0.9555936 -3.488197,2.0132555 -4.072648,2.3503605 l -1.062638,0.612917 z"
     id="path256" />
</svg>
